<mxfile host="app.diagrams.net" modified="2022-02-25T15:58:37.452Z" agent="5.0 (Windows NT 10.0; Win64; x64) AppleWebKit/537.36 (KHTML, like Gecko) Chrome/98.0.4758.80 Safari/537.36 Edg/98.0.1108.50" etag="Lwdqj5b7k3-aXoMLXik-" version="16.4.5" type="github">
  <diagram id="UmWB6mA-8zo986hLE9dD" name="Page-1">
    <mxGraphModel dx="2062" dy="1122" grid="1" gridSize="10" guides="1" tooltips="1" connect="1" arrows="1" fold="1" page="1" pageScale="1" pageWidth="1654" pageHeight="2336" math="0" shadow="0">
      <root>
        <mxCell id="0" />
        <mxCell id="1" parent="0" />
        <mxCell id="ACrcvEzspb-hBuewnNuO-1" value="kafka（订单流水）" style="ellipse;whiteSpace=wrap;html=1;" parent="1" vertex="1">
          <mxGeometry x="660" y="20" width="120" height="80" as="geometry" />
        </mxCell>
        <mxCell id="ACrcvEzspb-hBuewnNuO-21" value="" style="rounded=0;whiteSpace=wrap;html=1;dashed=1;align=left;" parent="1" vertex="1">
          <mxGeometry x="260" y="370" width="930" height="230" as="geometry" />
        </mxCell>
        <mxCell id="ACrcvEzspb-hBuewnNuO-4" value="根据维度分组" style="shape=parallelogram;perimeter=parallelogramPerimeter;whiteSpace=wrap;html=1;fixedSize=1;" parent="1" vertex="1">
          <mxGeometry x="660" y="140" width="120" height="60" as="geometry" />
        </mxCell>
        <mxCell id="ACrcvEzspb-hBuewnNuO-5" value="商户 维度" style="rounded=1;whiteSpace=wrap;html=1;" parent="1" vertex="1">
          <mxGeometry x="460" y="260" width="120" height="60" as="geometry" />
        </mxCell>
        <mxCell id="ACrcvEzspb-hBuewnNuO-6" value="卡 维度" style="rounded=1;whiteSpace=wrap;html=1;" parent="1" vertex="1">
          <mxGeometry x="660" y="260" width="120" height="60" as="geometry" />
        </mxCell>
        <mxCell id="ACrcvEzspb-hBuewnNuO-7" value="商户-卡 维度" style="rounded=1;whiteSpace=wrap;html=1;" parent="1" vertex="1">
          <mxGeometry x="860" y="260" width="120" height="60" as="geometry" />
        </mxCell>
        <mxCell id="ACrcvEzspb-hBuewnNuO-8" value="" style="endArrow=classic;html=1;rounded=0;exitX=0.5;exitY=1;exitDx=0;exitDy=0;entryX=0.5;entryY=0;entryDx=0;entryDy=0;" parent="1" source="ACrcvEzspb-hBuewnNuO-1" target="ACrcvEzspb-hBuewnNuO-4" edge="1">
          <mxGeometry width="50" height="50" relative="1" as="geometry">
            <mxPoint x="680" y="220" as="sourcePoint" />
            <mxPoint x="570" y="160" as="targetPoint" />
          </mxGeometry>
        </mxCell>
        <mxCell id="ACrcvEzspb-hBuewnNuO-9" value="" style="endArrow=classic;html=1;rounded=0;exitX=0.5;exitY=1;exitDx=0;exitDy=0;entryX=0.5;entryY=0;entryDx=0;entryDy=0;" parent="1" source="ACrcvEzspb-hBuewnNuO-4" target="ACrcvEzspb-hBuewnNuO-5" edge="1">
          <mxGeometry width="50" height="50" relative="1" as="geometry">
            <mxPoint x="540" y="220" as="sourcePoint" />
            <mxPoint x="590" y="170" as="targetPoint" />
          </mxGeometry>
        </mxCell>
        <mxCell id="ACrcvEzspb-hBuewnNuO-10" value="" style="endArrow=classic;html=1;rounded=0;exitX=0.5;exitY=1;exitDx=0;exitDy=0;" parent="1" source="ACrcvEzspb-hBuewnNuO-4" target="ACrcvEzspb-hBuewnNuO-6" edge="1">
          <mxGeometry width="50" height="50" relative="1" as="geometry">
            <mxPoint x="520" y="200" as="sourcePoint" />
            <mxPoint x="570" y="150" as="targetPoint" />
          </mxGeometry>
        </mxCell>
        <mxCell id="ACrcvEzspb-hBuewnNuO-11" value="" style="endArrow=classic;html=1;rounded=0;exitX=0.5;exitY=1;exitDx=0;exitDy=0;entryX=0.5;entryY=0;entryDx=0;entryDy=0;" parent="1" source="ACrcvEzspb-hBuewnNuO-4" target="ACrcvEzspb-hBuewnNuO-7" edge="1">
          <mxGeometry width="50" height="50" relative="1" as="geometry">
            <mxPoint x="490" y="180" as="sourcePoint" />
            <mxPoint x="540" y="130" as="targetPoint" />
          </mxGeometry>
        </mxCell>
        <mxCell id="ACrcvEzspb-hBuewnNuO-12" value="商户1：指标1, 指标2, 指标3...&lt;br&gt;商户2：指标1, 指标2, 指标3...&lt;br&gt;商户3：指标1, 指标2, 指标3...&lt;br&gt;..." style="shape=document;whiteSpace=wrap;html=1;boundedLbl=1;" parent="1" vertex="1">
          <mxGeometry x="330" y="390" width="170" height="110" as="geometry" />
        </mxCell>
        <mxCell id="ACrcvEzspb-hBuewnNuO-13" value="卡1：指标1, 指标2, 指标3...&lt;br&gt;卡2：指标1, 指标2, 指标3...&lt;br&gt;卡3：指标1, 指标2, 指标3...&lt;br&gt;..." style="shape=document;whiteSpace=wrap;html=1;boundedLbl=1;" parent="1" vertex="1">
          <mxGeometry x="620" y="390" width="170" height="120" as="geometry" />
        </mxCell>
        <mxCell id="ACrcvEzspb-hBuewnNuO-14" value="商户1-卡1：指标1, 指标2, 指标3...&lt;br&gt;商户1-卡2：指标1, 指标2, 指标3...&lt;br&gt;商户2-卡1：指标1, 指标2, 指标3...&lt;br&gt;..." style="shape=document;whiteSpace=wrap;html=1;boundedLbl=1;" parent="1" vertex="1">
          <mxGeometry x="920" y="390" width="200" height="120" as="geometry" />
        </mxCell>
        <mxCell id="ACrcvEzspb-hBuewnNuO-27" value="" style="endArrow=none;dashed=1;html=1;rounded=0;entryX=0.5;entryY=1;entryDx=0;entryDy=0;exitX=0.5;exitY=0;exitDx=0;exitDy=0;" parent="1" source="ACrcvEzspb-hBuewnNuO-12" target="ACrcvEzspb-hBuewnNuO-5" edge="1">
          <mxGeometry width="50" height="50" relative="1" as="geometry">
            <mxPoint x="700" y="410" as="sourcePoint" />
            <mxPoint x="750" y="360" as="targetPoint" />
          </mxGeometry>
        </mxCell>
        <mxCell id="ACrcvEzspb-hBuewnNuO-28" value="" style="endArrow=none;dashed=1;html=1;rounded=0;entryX=0.5;entryY=1;entryDx=0;entryDy=0;exitX=0.5;exitY=0;exitDx=0;exitDy=0;" parent="1" source="ACrcvEzspb-hBuewnNuO-13" target="ACrcvEzspb-hBuewnNuO-6" edge="1">
          <mxGeometry width="50" height="50" relative="1" as="geometry">
            <mxPoint x="652.5" y="400" as="sourcePoint" />
            <mxPoint x="757.5" y="330" as="targetPoint" />
          </mxGeometry>
        </mxCell>
        <mxCell id="ACrcvEzspb-hBuewnNuO-29" value="" style="endArrow=none;dashed=1;html=1;rounded=0;entryX=0.5;entryY=1;entryDx=0;entryDy=0;exitX=0.5;exitY=0;exitDx=0;exitDy=0;" parent="1" source="ACrcvEzspb-hBuewnNuO-14" target="ACrcvEzspb-hBuewnNuO-7" edge="1">
          <mxGeometry width="50" height="50" relative="1" as="geometry">
            <mxPoint x="435" y="410" as="sourcePoint" />
            <mxPoint x="540" y="340" as="targetPoint" />
          </mxGeometry>
        </mxCell>
        <mxCell id="ACrcvEzspb-hBuewnNuO-32" value="&lt;font color=&quot;#3399ff&quot;&gt;&lt;br&gt;&lt;/font&gt;&lt;div style=&quot;text-align: left&quot;&gt;&lt;span style=&quot;font-size: 18px ; font-weight: 700&quot;&gt;&lt;font color=&quot;#3399ff&quot;&gt;中间结果&lt;/font&gt;&lt;/span&gt;&lt;/div&gt;&lt;span style=&quot;font-size: 18px ; font-weight: 700&quot;&gt;&lt;div style=&quot;text-align: left&quot;&gt;&lt;span&gt;&lt;font color=&quot;#3399ff&quot;&gt;缓存介质：内存/磁盘&lt;/font&gt;&lt;/span&gt;&lt;/div&gt;&lt;div style=&quot;text-align: left&quot;&gt;&lt;span&gt;&lt;font color=&quot;#3399ff&quot;&gt;缓存时长：1天&lt;/font&gt;&lt;/span&gt;&lt;/div&gt;&lt;br&gt;&lt;/span&gt;" style="rounded=0;whiteSpace=wrap;html=1;dashed=1;strokeColor=#FFFFFF;" parent="1" vertex="1">
          <mxGeometry x="270" y="520" width="210" height="70" as="geometry" />
        </mxCell>
        <mxCell id="ACrcvEzspb-hBuewnNuO-35" value="&lt;font color=&quot;#000000&quot;&gt;kafka（&lt;/font&gt;&lt;span style=&quot;color: rgb(0 , 0 , 0)&quot;&gt;统计结果&lt;/span&gt;&lt;font color=&quot;#000000&quot;&gt;）&lt;/font&gt;" style="rounded=1;whiteSpace=wrap;html=1;fontColor=#3399FF;strokeColor=#000000;" parent="1" vertex="1">
          <mxGeometry x="639" y="700" width="141" height="50" as="geometry" />
        </mxCell>
        <mxCell id="ACrcvEzspb-hBuewnNuO-36" value="" style="endArrow=classic;html=1;rounded=0;fontColor=#000000;exitX=0.487;exitY=0.999;exitDx=0;exitDy=0;exitPerimeter=0;entryX=0.5;entryY=0;entryDx=0;entryDy=0;" parent="1" source="ACrcvEzspb-hBuewnNuO-21" target="ACrcvEzspb-hBuewnNuO-35" edge="1">
          <mxGeometry width="50" height="50" relative="1" as="geometry">
            <mxPoint x="700" y="530" as="sourcePoint" />
            <mxPoint x="750" y="480" as="targetPoint" />
          </mxGeometry>
        </mxCell>
        <mxCell id="RsstTSIoHTFgfg_VdX8D-13" style="edgeStyle=orthogonalEdgeStyle;rounded=0;orthogonalLoop=1;jettySize=auto;html=1;exitX=1;exitY=0.5;exitDx=0;exitDy=0;" parent="1" source="RsstTSIoHTFgfg_VdX8D-2" edge="1">
          <mxGeometry relative="1" as="geometry">
            <mxPoint x="410" y="1150" as="targetPoint" />
          </mxGeometry>
        </mxCell>
        <mxCell id="RsstTSIoHTFgfg_VdX8D-2" value="kafka（订单流水）" style="ellipse;whiteSpace=wrap;html=1;" parent="1" vertex="1">
          <mxGeometry x="200" y="1110" width="120" height="80" as="geometry" />
        </mxCell>
        <mxCell id="RsstTSIoHTFgfg_VdX8D-26" style="edgeStyle=orthogonalEdgeStyle;rounded=0;orthogonalLoop=1;jettySize=auto;html=1;exitX=1;exitY=0.5;exitDx=0;exitDy=0;entryX=0;entryY=0.5;entryDx=0;entryDy=0;" parent="1" source="RsstTSIoHTFgfg_VdX8D-4" target="RsstTSIoHTFgfg_VdX8D-25" edge="1">
          <mxGeometry relative="1" as="geometry" />
        </mxCell>
        <mxCell id="RsstTSIoHTFgfg_VdX8D-4" value="" style="rounded=0;whiteSpace=wrap;html=1;" parent="1" vertex="1">
          <mxGeometry x="414.5" y="1100" width="655.5" height="100" as="geometry" />
        </mxCell>
        <mxCell id="RsstTSIoHTFgfg_VdX8D-10" style="edgeStyle=orthogonalEdgeStyle;rounded=0;orthogonalLoop=1;jettySize=auto;html=1;exitX=1;exitY=0.5;exitDx=0;exitDy=0;entryX=0;entryY=0.5;entryDx=0;entryDy=0;" parent="1" source="RsstTSIoHTFgfg_VdX8D-5" target="RsstTSIoHTFgfg_VdX8D-6" edge="1">
          <mxGeometry relative="1" as="geometry" />
        </mxCell>
        <mxCell id="RsstTSIoHTFgfg_VdX8D-5" value="商户 维度" style="rounded=1;whiteSpace=wrap;html=1;" parent="1" vertex="1">
          <mxGeometry x="430" y="1120" width="120" height="60" as="geometry" />
        </mxCell>
        <mxCell id="RsstTSIoHTFgfg_VdX8D-11" style="edgeStyle=orthogonalEdgeStyle;rounded=0;orthogonalLoop=1;jettySize=auto;html=1;exitX=1;exitY=0.5;exitDx=0;exitDy=0;entryX=0;entryY=0.5;entryDx=0;entryDy=0;" parent="1" source="RsstTSIoHTFgfg_VdX8D-6" target="RsstTSIoHTFgfg_VdX8D-7" edge="1">
          <mxGeometry relative="1" as="geometry" />
        </mxCell>
        <mxCell id="RsstTSIoHTFgfg_VdX8D-6" value="卡 维度" style="rounded=1;whiteSpace=wrap;html=1;" parent="1" vertex="1">
          <mxGeometry x="600" y="1120" width="120" height="60" as="geometry" />
        </mxCell>
        <mxCell id="RsstTSIoHTFgfg_VdX8D-12" style="edgeStyle=orthogonalEdgeStyle;rounded=0;orthogonalLoop=1;jettySize=auto;html=1;exitX=1;exitY=0.5;exitDx=0;exitDy=0;entryX=0;entryY=0.5;entryDx=0;entryDy=0;" parent="1" source="RsstTSIoHTFgfg_VdX8D-7" target="RsstTSIoHTFgfg_VdX8D-9" edge="1">
          <mxGeometry relative="1" as="geometry" />
        </mxCell>
        <mxCell id="RsstTSIoHTFgfg_VdX8D-7" value="商户-卡 维度" style="rounded=1;whiteSpace=wrap;html=1;" parent="1" vertex="1">
          <mxGeometry x="770" y="1120" width="120" height="60" as="geometry" />
        </mxCell>
        <mxCell id="RsstTSIoHTFgfg_VdX8D-9" value="xxx 维度" style="rounded=1;whiteSpace=wrap;html=1;" parent="1" vertex="1">
          <mxGeometry x="930" y="1120" width="120" height="60" as="geometry" />
        </mxCell>
        <mxCell id="RsstTSIoHTFgfg_VdX8D-14" value="" style="rounded=0;whiteSpace=wrap;html=1;dashed=1;align=left;" parent="1" vertex="1">
          <mxGeometry x="360" y="820" width="810" height="180" as="geometry" />
        </mxCell>
        <mxCell id="RsstTSIoHTFgfg_VdX8D-15" value="商户1：指标1, 指标2, 指标3...&lt;br&gt;商户2：指标1, 指标2, 指标3...&lt;br&gt;商户3：指标1, 指标2, 指标3...&lt;br&gt;..." style="shape=document;whiteSpace=wrap;html=1;boundedLbl=1;" parent="1" vertex="1">
          <mxGeometry x="430" y="840" width="170" height="110" as="geometry" />
        </mxCell>
        <mxCell id="RsstTSIoHTFgfg_VdX8D-16" value="卡1：指标4, 指标5, 指标6...&lt;br&gt;卡2：指标4, 指标5, 指标6...&lt;br&gt;卡3：指标4, 指标5, 指标6...&lt;br&gt;..." style="shape=document;whiteSpace=wrap;html=1;boundedLbl=1;" parent="1" vertex="1">
          <mxGeometry x="650" y="840" width="170" height="120" as="geometry" />
        </mxCell>
        <mxCell id="RsstTSIoHTFgfg_VdX8D-17" value="商户1-卡1：指标7, 指标8, 指标9...&lt;br&gt;商户1-卡2：指标7, 指标8, 指标9...&lt;br&gt;商户2-卡1：指标7, 指标8, 指标9...&lt;br&gt;..." style="shape=document;whiteSpace=wrap;html=1;boundedLbl=1;" parent="1" vertex="1">
          <mxGeometry x="870" y="840" width="200" height="120" as="geometry" />
        </mxCell>
        <mxCell id="RsstTSIoHTFgfg_VdX8D-22" value="" style="endArrow=none;dashed=1;html=1;rounded=0;entryX=0.452;entryY=0.904;entryDx=0;entryDy=0;exitX=0.573;exitY=0.01;exitDx=0;exitDy=0;exitPerimeter=0;entryPerimeter=0;" parent="1" source="RsstTSIoHTFgfg_VdX8D-5" target="RsstTSIoHTFgfg_VdX8D-15" edge="1">
          <mxGeometry width="50" height="50" relative="1" as="geometry">
            <mxPoint x="495" y="710" as="sourcePoint" />
            <mxPoint x="600" y="640" as="targetPoint" />
          </mxGeometry>
        </mxCell>
        <mxCell id="RsstTSIoHTFgfg_VdX8D-23" value="" style="endArrow=none;dashed=1;html=1;rounded=0;entryX=0.527;entryY=0.828;entryDx=0;entryDy=0;exitX=0.5;exitY=0;exitDx=0;exitDy=0;entryPerimeter=0;" parent="1" source="RsstTSIoHTFgfg_VdX8D-6" target="RsstTSIoHTFgfg_VdX8D-16" edge="1">
          <mxGeometry width="50" height="50" relative="1" as="geometry">
            <mxPoint x="688.2100000000003" y="1110" as="sourcePoint" />
            <mxPoint x="796.2900000000002" y="898.84" as="targetPoint" />
          </mxGeometry>
        </mxCell>
        <mxCell id="RsstTSIoHTFgfg_VdX8D-24" value="" style="endArrow=none;dashed=1;html=1;rounded=0;entryX=0.488;entryY=0.895;entryDx=0;entryDy=0;exitX=0.5;exitY=0;exitDx=0;exitDy=0;entryPerimeter=0;" parent="1" source="RsstTSIoHTFgfg_VdX8D-7" target="RsstTSIoHTFgfg_VdX8D-17" edge="1">
          <mxGeometry width="50" height="50" relative="1" as="geometry">
            <mxPoint x="670" y="1130" as="sourcePoint" />
            <mxPoint x="849.5900000000001" y="919.3599999999999" as="targetPoint" />
          </mxGeometry>
        </mxCell>
        <mxCell id="RsstTSIoHTFgfg_VdX8D-25" value="&lt;font color=&quot;#000000&quot;&gt;kafka（&lt;/font&gt;&lt;span style=&quot;color: rgb(0 , 0 , 0)&quot;&gt;统计结果&lt;/span&gt;&lt;font color=&quot;#000000&quot;&gt;）&lt;/font&gt;" style="rounded=1;whiteSpace=wrap;html=1;fontColor=#3399FF;strokeColor=#000000;" parent="1" vertex="1">
          <mxGeometry x="1160" y="1125" width="141" height="50" as="geometry" />
        </mxCell>
        <mxCell id="qV-WsPIJ0w9iUvzDWkrT-1" value="流水1: 指标1,2,3,4,5,6,7,8,9....&lt;br&gt;流水2: 指标1,2,3,4,5,6,7,8,9....&lt;br&gt;流水3: 指标1,2,3,4,5,6,7,8,9....&lt;br&gt;..." style="shape=document;whiteSpace=wrap;html=1;boundedLbl=1;" vertex="1" parent="1">
          <mxGeometry x="1220" y="880" width="219.5" height="120" as="geometry" />
        </mxCell>
        <mxCell id="qV-WsPIJ0w9iUvzDWkrT-4" value="" style="endArrow=none;dashed=1;html=1;rounded=0;entryX=0.53;entryY=0.825;entryDx=0;entryDy=0;exitX=0.5;exitY=0;exitDx=0;exitDy=0;entryPerimeter=0;" edge="1" parent="1" source="RsstTSIoHTFgfg_VdX8D-25" target="qV-WsPIJ0w9iUvzDWkrT-1">
          <mxGeometry width="50" height="50" relative="1" as="geometry">
            <mxPoint x="840" y="1130" as="sourcePoint" />
            <mxPoint x="977.5999999999999" y="957.4000000000001" as="targetPoint" />
          </mxGeometry>
        </mxCell>
        <mxCell id="qV-WsPIJ0w9iUvzDWkrT-5" value="流水1&lt;br&gt;流水2&lt;br&gt;流水3&lt;br&gt;..." style="shape=document;whiteSpace=wrap;html=1;boundedLbl=1;" vertex="1" parent="1">
          <mxGeometry x="170" y="900" width="150" height="100" as="geometry" />
        </mxCell>
        <mxCell id="qV-WsPIJ0w9iUvzDWkrT-6" value="" style="endArrow=none;dashed=1;html=1;rounded=0;entryX=0.523;entryY=0.886;entryDx=0;entryDy=0;exitX=0.5;exitY=0;exitDx=0;exitDy=0;entryPerimeter=0;" edge="1" parent="1" source="RsstTSIoHTFgfg_VdX8D-2" target="qV-WsPIJ0w9iUvzDWkrT-5">
          <mxGeometry width="50" height="50" relative="1" as="geometry">
            <mxPoint x="508.7600000000002" y="1130.6" as="sourcePoint" />
            <mxPoint x="516.8400000000001" y="949.44" as="targetPoint" />
          </mxGeometry>
        </mxCell>
      </root>
    </mxGraphModel>
  </diagram>
</mxfile>
